<svg width="18" height="18" viewBox="0 0 18 18" fill="none" xmlns="http://www.w3.org/2000/svg">
<path d="M14.8275 5.4225L14.835 5.415L12.045 2.625L11.25 3.42L12.8325 5.0025C12.1275 5.2725 11.625 5.9475 11.625 6.75C11.625 6.99623 11.6735 7.24005 11.7677 7.46753C11.862 7.69502 12.0001 7.90172 12.1742 8.07583C12.5258 8.42746 13.0027 8.625 13.5 8.625C13.77 8.625 14.0175 8.565 14.25 8.4675V13.875C14.25 14.0739 14.171 14.2647 14.0303 14.4053C13.8897 14.546 13.6989 14.625 13.5 14.625C13.3011 14.625 13.1103 14.546 12.9697 14.4053C12.829 14.2647 12.75 14.0739 12.75 13.875V10.5C12.75 10.1022 12.592 9.72064 12.3107 9.43934C12.0294 9.15804 11.6478 9 11.25 9H10.5V3.75C10.5 3.35218 10.342 2.97064 10.0607 2.68934C9.77936 2.40804 9.39782 2.25 9 2.25H4.5C4.10218 2.25 3.72064 2.40804 3.43934 2.68934C3.15804 2.97064 3 3.35218 3 3.75V15.75H10.5V10.125H11.625V13.875C11.625 14.3723 11.8225 14.8492 12.1742 15.2008C12.5258 15.5525 13.0027 15.75 13.5 15.75C13.7462 15.75 13.99 15.7015 14.2175 15.6073C14.445 15.513 14.6517 15.3749 14.8258 15.2008C14.9999 15.0267 15.138 14.82 15.2323 14.5925C15.3265 14.365 15.375 14.1212 15.375 13.875V6.75C15.375 6.2325 15.165 5.76 14.8275 5.4225ZM9 10.125V14.25H4.5V9H9V10.125ZM9 7.5H4.5V3.75H9V7.5ZM13.5 7.5C13.3011 7.5 13.1103 7.42098 12.9697 7.28033C12.829 7.13968 12.75 6.94891 12.75 6.75C12.75 6.55109 12.829 6.36032 12.9697 6.21967C13.1103 6.07902 13.3011 6 13.5 6C13.6989 6 13.8897 6.07902 14.0303 6.21967C14.171 6.36032 14.25 6.55109 14.25 6.75C14.25 6.94891 14.171 7.13968 14.0303 7.28033C13.8897 7.42098 13.6989 7.5 13.5 7.5Z" fill="#51AAFD"/>
</svg>
