<svg width="18" height="18" viewBox="0 0 18 18" fill="none" xmlns="http://www.w3.org/2000/svg">
<g clip-path="url(#clip0_21_10)">
<path d="M9 1.125C10.9955 1.1245 12.9345 1.78717 14.5123 3.00883C16.0901 4.2305 17.2171 5.94187 17.7162 7.8739C18.2153 9.80593 18.0582 11.849 17.2695 13.682C16.4809 15.515 15.1054 17.034 13.3594 18H4.64062C2.8946 17.034 1.51914 15.515 0.730479 13.682C-0.0581791 11.849 -0.215306 9.80593 0.283802 7.8739C0.78291 5.94187 1.90995 4.2305 3.48772 3.00883C5.0655 1.78717 7.00454 1.1245 9 1.125ZM14.0962 15.2212C14.7675 14.5535 15.2997 13.7593 15.662 12.8845C16.0243 12.0098 16.2094 11.0718 16.2068 10.125H14.625V9H16.1201C15.9979 8.21354 15.745 7.45306 15.372 6.75H13.5V5.625H14.6295C13.7567 4.52791 12.5813 3.71082 11.2489 3.27488V4.5H10.1239V3.00488C9.37836 2.88891 8.61939 2.88891 7.87387 3.00488V4.5H6.74887V3.27488C5.41679 3.71154 4.24162 4.52849 3.36825 5.625H4.49775V6.75H2.62575C2.2527 7.45306 1.99984 8.21354 1.87763 9H3.37275V10.125H1.791C1.791 12.0499 2.54025 13.86 3.9015 15.2212C4.08938 15.4091 4.28738 15.5858 4.491 15.75H7.87275L8.51512 6.75H9.47925L10.1216 15.75H13.5034C13.7081 15.5858 13.905 15.4091 14.0929 15.2212H14.0962Z" fill="#51AAFD"/>
</g>
<defs>
<clipPath id="clip0_21_10">
<rect width="18" height="18" fill="white"/>
</clipPath>
</defs>
</svg>
