<svg width="18" height="18" viewBox="0 0 18 18" fill="none" xmlns="http://www.w3.org/2000/svg">
<path d="M2.25 6.1875C2.24992 5.53485 2.41207 4.89243 2.72186 4.31799C3.03165 3.74356 3.47937 3.25514 4.02474 2.89666C4.57012 2.53818 5.19605 2.32089 5.84624 2.26433C6.49643 2.20777 7.15048 2.3137 7.74957 2.57262C8.34866 2.83153 8.87399 3.2353 9.27832 3.74761C9.68266 4.25991 9.95331 4.86469 10.0659 5.50754C10.1786 6.1504 10.1296 6.81116 9.92352 7.43041C9.71743 8.04966 9.36064 8.60797 8.88525 9.05512C9.78166 9.49011 10.56 10.1349 11.1541 10.9347C11.7483 11.7345 12.1409 12.6658 12.2985 13.6496C12.3159 13.7591 12.3115 13.8709 12.2856 13.9787C12.2598 14.0865 12.2129 14.1881 12.1478 14.2778C12.0827 14.3675 12.0005 14.4435 11.906 14.5014C11.8115 14.5593 11.7065 14.5981 11.5971 14.6154C11.4876 14.6328 11.3758 14.6284 11.268 14.6026C11.1602 14.5767 11.0586 14.5299 10.9689 14.4647C10.8792 14.3996 10.8032 14.3174 10.7453 14.2229C10.6874 14.1285 10.6486 14.0235 10.6312 13.914C10.4625 12.8568 9.92242 11.8945 9.10796 11.1997C8.2935 10.5049 7.25803 10.1233 6.1875 10.1233C5.11696 10.1233 4.08149 10.5049 3.26703 11.1997C2.45258 11.8945 1.91248 12.8568 1.74375 13.914C1.72631 14.0235 1.68749 14.1284 1.62949 14.2229C1.57149 14.3174 1.49545 14.3995 1.40572 14.4646C1.31598 14.5297 1.2143 14.5764 1.10649 14.6022C0.998681 14.628 0.886846 14.6323 0.777373 14.6149C0.6679 14.5974 0.562932 14.5586 0.468463 14.5006C0.373995 14.4426 0.291875 14.3666 0.226793 14.2768C0.16171 14.1871 0.11494 14.0854 0.0891526 13.9776C0.063365 13.8698 0.059065 13.758 0.0764979 13.6485C0.234375 12.665 0.627045 11.7341 1.22122 10.9347C1.8154 10.1353 2.59356 9.49095 3.48975 9.05625C3.09788 8.68829 2.78567 8.24385 2.57242 7.75042C2.35918 7.25698 2.24944 6.72504 2.25 6.1875ZM12.375 4.5C13.0286 4.50045 13.6681 4.69064 14.2157 5.04748C14.7634 5.40431 15.1957 5.91245 15.4601 6.5102C15.7246 7.10796 15.8098 7.76962 15.7055 8.41489C15.6012 9.06015 15.3118 9.66126 14.8725 10.1452C15.5573 10.4852 16.1657 10.9609 16.6608 11.5434C17.1559 12.126 17.5274 12.8031 17.7525 13.5337C17.7971 13.6756 17.8034 13.8267 17.7707 13.9717C17.738 14.1168 17.6675 14.2506 17.5664 14.3596C17.4653 14.4686 17.3372 14.5489 17.195 14.5923C17.0528 14.6358 16.9016 14.6408 16.7569 14.607C16.6122 14.5733 16.479 14.5021 16.3706 14.4006C16.2622 14.2991 16.1824 14.1709 16.1392 14.0287C15.9376 13.3765 15.5702 12.7877 15.0729 12.32C14.5756 11.8522 13.9654 11.5215 13.302 11.3602C13.1178 11.3158 12.9539 11.2106 12.8367 11.0616C12.7196 10.9126 12.656 10.7285 12.6562 10.539V10.143C12.6561 9.98591 12.6999 9.83192 12.7826 9.69835C12.8653 9.56478 12.9836 9.45695 13.1242 9.387C13.4653 9.21797 13.7392 8.9386 13.9014 8.59426C14.0637 8.24993 14.1047 7.86085 14.018 7.49023C13.9312 7.11961 13.7216 6.78922 13.4234 6.55273C13.1251 6.31623 12.7556 6.18752 12.375 6.1875C12.1512 6.1875 11.9366 6.0986 11.7784 5.94037C11.6201 5.78213 11.5312 5.56752 11.5312 5.34375C11.5312 5.11997 11.6201 4.90536 11.7784 4.74713C11.9366 4.58889 12.1512 4.5 12.375 4.5ZM6.1875 3.9375C5.88787 3.93072 5.5899 3.98388 5.3111 4.09384C5.03229 4.2038 4.77826 4.36836 4.56393 4.57785C4.34959 4.78734 4.17927 5.03754 4.06297 5.31376C3.94666 5.58998 3.88671 5.88665 3.88663 6.18636C3.88656 6.48607 3.94636 6.78277 4.06253 7.05905C4.1787 7.33533 4.34889 7.58561 4.56312 7.79521C4.77735 8.0048 5.0313 8.16949 5.31005 8.27959C5.5888 8.38969 5.88674 8.443 6.18637 8.43637C6.77425 8.42337 7.33369 8.18074 7.74491 7.76043C8.15614 7.34011 8.38648 6.77551 8.38663 6.18748C8.38678 5.59946 8.15672 5.03474 7.7457 4.61422C7.33468 4.1937 6.77537 3.95079 6.1875 3.9375Z" fill="#51AAFD"/>
</svg>
