<svg width="18" height="18" viewBox="0 0 18 18" fill="none" xmlns="http://www.w3.org/2000/svg">
<path d="M10.125 10.125C10.125 10.3475 10.059 10.565 9.93541 10.75C9.81179 10.935 9.63609 11.0792 9.43052 11.1644C9.22496 11.2495 8.99876 11.2718 8.78053 11.2284C8.5623 11.185 8.36184 11.0778 8.20451 10.9205C8.04717 10.7632 7.94003 10.5627 7.89662 10.3445C7.85321 10.1262 7.87549 9.90005 7.96064 9.69448C8.04579 9.48891 8.18998 9.31321 8.37499 9.1896C8.55999 9.06598 8.7775 9 9 9C9.29837 9 9.58452 9.11853 9.7955 9.32951C10.0065 9.54048 10.125 9.82663 10.125 10.125ZM16.5938 9C16.5938 10.5019 16.1484 11.9701 15.314 13.2189C14.4796 14.4676 13.2936 15.441 11.906 16.0157C10.5184 16.5905 8.99158 16.7408 7.51854 16.4478C6.04549 16.1548 4.69242 15.4316 3.63041 14.3696C2.56841 13.3076 1.84517 11.9545 1.55217 10.4815C1.25916 9.00842 1.40954 7.48157 1.98429 6.094C2.55905 4.70642 3.53236 3.52044 4.78114 2.68603C6.02993 1.85162 7.4981 1.40625 9 1.40625C11.0133 1.40848 12.9435 2.20925 14.3671 3.63287C15.7907 5.0565 16.5915 6.9867 16.5938 9ZM11.6402 10.9688H14.5673C14.6229 10.8134 14.6721 10.6545 14.7143 10.4934C13.1892 8.99603 11.1373 8.15709 9 8.15709C6.8627 8.15709 4.81078 8.99603 3.28571 10.4934C3.32789 10.6547 3.37688 10.8131 3.43266 10.9688H6.35977C6.6461 10.9695 6.92542 11.0574 7.16064 11.2206C7.39586 11.3839 7.57586 11.6148 7.67672 11.8828L8.80594 14.9013C8.87063 14.9013 8.93461 14.9062 9 14.9062C9.06539 14.9062 9.12797 14.9062 9.19125 14.9013L10.3233 11.8779C10.4251 11.6109 10.6055 11.3812 10.8406 11.2188C11.0757 11.0565 11.3545 10.9693 11.6402 10.9688ZM3.12258 8.41852C4.82061 7.15256 6.882 6.4687 9 6.4687C11.118 6.4687 13.1794 7.15256 14.8774 8.41852C14.7328 6.96014 14.0512 5.60761 12.9649 4.62379C11.8787 3.63996 10.4655 3.0951 9 3.0951C7.53447 3.0951 6.12128 3.63996 5.03507 4.62379C3.94886 5.60761 3.2672 6.96014 3.12258 8.41852ZM6.85477 14.5013L6.165 12.6562H4.36641C5.01803 13.4806 5.8767 14.1172 6.85477 14.5013ZM13.6336 12.6562H11.835L11.1431 14.502C12.1222 14.1184 12.9817 13.4814 13.6336 12.6562Z" fill="#51AAFD"/>
</svg>
