<svg width="18" height="18" viewBox="0 0 21 21" fill="none" xmlns="http://www.w3.org/2000/svg">
<path d="M19.0312 8.03906H16.8984V7.875C16.8984 7.74447 16.8466 7.61928 16.7543 7.52697C16.662 7.43467 16.5368 7.38281 16.4062 7.38281H11.1562C11.0257 7.38281 10.9005 7.43467 10.8082 7.52697C10.7159 7.61928 10.6641 7.74447 10.6641 7.875V8.03906H5.08594V4.26563C5.08594 3.96104 5.20693 3.66893 5.42231 3.45356C5.63768 3.23818 5.92979 3.11719 6.23438 3.11719C6.50279 3.11669 6.76344 3.20719 6.9738 3.3739C7.18417 3.54061 7.33181 3.77369 7.39266 4.03512C7.40457 4.09933 7.42914 4.16053 7.46494 4.21515C7.50074 4.26977 7.54706 4.31672 7.60118 4.35326C7.65531 4.38981 7.71617 4.41521 7.78021 4.428C7.84426 4.44079 7.91021 4.4407 7.97422 4.42775C8.03823 4.41479 8.09902 4.38923 8.15305 4.35254C8.20708 4.31586 8.25327 4.26879 8.28893 4.21408C8.32459 4.15936 8.349 4.0981 8.36075 4.03386C8.37249 3.96961 8.37134 3.90368 8.35734 3.83988C8.25349 3.35474 7.98571 2.92017 7.59907 2.60927C7.21243 2.29837 6.7305 2.13012 6.23438 2.13281C5.66872 2.13281 5.12623 2.35752 4.72625 2.7575C4.32627 3.15748 4.10156 3.69997 4.10156 4.26563V8.03906H1.96875C1.66417 8.03906 1.37206 8.16006 1.15668 8.37543C0.941308 8.59081 0.820313 8.88292 0.820312 9.1875V11.8125C0.821615 12.9869 1.28873 14.1129 2.11918 14.9433C2.94962 15.7738 4.07557 16.2409 5.25 16.2422H5.41406V17.7188C5.41406 17.8493 5.46592 17.9745 5.55822 18.0668C5.65052 18.1591 5.77571 18.2109 5.90625 18.2109C6.03679 18.2109 6.16198 18.1591 6.25428 18.0668C6.34658 17.9745 6.39844 17.8493 6.39844 17.7188V16.2422H14.6016V17.7188C14.6016 17.8493 14.6534 17.9745 14.7457 18.0668C14.838 18.1591 14.9632 18.2109 15.0938 18.2109C15.2243 18.2109 15.3495 18.1591 15.4418 18.0668C15.5341 17.9745 15.5859 17.8493 15.5859 17.7188V16.2422H15.75C16.9244 16.2409 18.0504 15.7738 18.8808 14.9433C19.7113 14.1129 20.1784 12.9869 20.1797 11.8125V9.1875C20.1797 8.88292 20.0587 8.59081 19.8433 8.37543C19.6279 8.16006 19.3358 8.03906 19.0312 8.03906ZM11.6484 8.36719H15.9141V11.3203H11.6484V8.36719ZM19.1953 11.8125C19.1953 12.7263 18.8323 13.6026 18.1862 14.2487C17.5401 14.8948 16.6638 15.2578 15.75 15.2578H5.25C4.33625 15.2578 3.45992 14.8948 2.8138 14.2487C2.16767 13.6026 1.80469 12.7263 1.80469 11.8125V9.1875C1.80469 9.14399 1.82197 9.10226 1.85274 9.07149C1.88351 9.04072 1.92524 9.02344 1.96875 9.02344H10.6641V11.8125C10.6641 11.943 10.7159 12.0682 10.8082 12.1605C10.9005 12.2528 11.0257 12.3047 11.1562 12.3047H16.4062C16.5368 12.3047 16.662 12.2528 16.7543 12.1605C16.8466 12.0682 16.8984 11.943 16.8984 11.8125V9.02344H19.0312C19.0748 9.02344 19.1165 9.04072 19.1473 9.07149C19.178 9.10226 19.1953 9.14399 19.1953 9.1875V11.8125Z" fill="#545454"/>
</svg>
