<svg width="20" height="20" viewBox="0 0 20 20" fill="none" xmlns="http://www.w3.org/2000/svg">
<g clip-path="url(#clip0_15_51)">
<path d="M10 18.0167C9.87726 18.0163 9.75809 17.9753 9.66112 17.9C6.57223 15.5 4.44445 13.4333 2.95556 11.3945C1.05556 8.78889 0.62223 6.38334 1.66667 4.24445C2.41112 2.71667 4.55001 1.46667 7.05001 2.19445C8.24197 2.53875 9.28194 3.27711 10 4.28889C10.7181 3.27711 11.758 2.53875 12.95 2.19445C15.4445 1.47778 17.5889 2.71667 18.3333 4.24445C19.3778 6.38334 18.9445 8.78889 17.0445 11.3945C15.5556 13.4333 13.4278 15.5 10.3389 17.9C10.2419 17.9753 10.1228 18.0163 10 18.0167ZM5.62779 3.10001C5.03293 3.07685 4.44299 3.21614 3.92131 3.50292C3.39963 3.7897 2.9659 4.21314 2.66667 4.72778C1.80556 6.49445 2.19445 8.46112 3.85556 10.7333C5.62088 13.0103 7.68801 15.0363 10 16.7556C12.3116 15.0381 14.3787 13.0139 16.1445 10.7389C17.8111 8.46112 18.1945 6.49445 17.3333 4.73334C16.7778 3.62223 15.1111 2.73889 13.2556 3.26112C12.6606 3.43695 12.109 3.7354 11.6363 4.13727C11.1637 4.53914 10.7804 5.03551 10.5111 5.59445C10.4693 5.69634 10.3981 5.7835 10.3066 5.84483C10.2151 5.90616 10.1074 5.93891 9.99723 5.93891C9.88707 5.93891 9.7794 5.90616 9.6879 5.84483C9.5964 5.7835 9.5252 5.69634 9.48334 5.59445C9.21611 5.03411 8.83347 4.53658 8.3605 4.13446C7.88754 3.73234 7.33493 3.43473 6.7389 3.26112C6.37777 3.15623 6.00383 3.10201 5.62779 3.10001Z" fill="#2B1AEA"/>
</g>
<defs>
<clipPath id="clip0_15_51">
<rect width="20" height="20" fill="white"/>
</clipPath>
</defs>
</svg>
