<svg width="20" height="20" viewBox="0 0 20 20" fill="none" xmlns="http://www.w3.org/2000/svg">
<path d="M15.8333 18.3333H16.6667V16.6667H15.8333V15.8333C15.8317 14.821 15.5673 13.8264 15.0658 12.947C14.5643 12.0676 13.843 11.3335 12.9725 10.8167C12.6767 10.6417 12.5 10.3608 12.5 10.0658V9.93417C12.5 9.63917 12.6767 9.35834 12.9717 9.18417C13.8423 8.66722 14.5637 7.93303 15.0654 7.05349C15.567 6.17395 15.8316 5.17921 15.8333 4.16667V3.33334H16.6667V1.66667H3.33333V3.33334H4.16666V4.16667C4.16835 5.17921 4.43297 6.17395 4.93461 7.05349C5.43624 7.93303 6.1577 8.66722 7.02833 9.18417C7.32333 9.35834 7.49999 9.63834 7.49999 9.93417V10.0658C7.49999 10.3608 7.32333 10.6417 7.02833 10.8158C6.1577 11.3328 5.43624 12.067 4.93461 12.9465C4.43297 13.8261 4.16835 14.8208 4.16666 15.8333V16.6667H3.33333V18.3333H15.8333ZM14.1667 3.33334V4.16667C14.1654 5.06855 13.8718 5.94571 13.33 6.66667H6.66999C6.12815 5.94571 5.83459 5.06855 5.83333 4.16667V3.33334H14.1667ZM7.87499 12.2517C8.68416 11.7733 9.16666 10.9567 9.16666 10.0658V10H10.8333V10.0658C10.8333 10.9558 11.3158 11.7733 12.1258 12.2517C12.8746 12.6973 13.4641 13.3673 13.8108 14.1667H6.18916C6.53594 13.3671 7.1258 12.697 7.87499 12.2517Z" fill="#ffffff"/>
</svg>
